<svg xmlns="http://www.w3.org/2000/svg" width="22" height="22" viewBox="0 0 22 22" fill="none">
  <g clip-path="url(#clip0_286_9)">
    <path d="M11 0C4.95816 0 0 4.95816 0 11C0 17.0418 4.95816 22 11 22C17.0418 22 22 17.0418 22 11C22 4.95816 17.0418 0 11 0ZM10.3555 2.62109H11.6445V5.19922H10.3555V2.62109ZM7.36884 3.42109L8.6579 5.6543L7.54132 6.29883L6.25225 4.06562L7.36884 3.42109ZM4.06562 6.25225L6.29883 7.54132L5.6543 8.6579L3.42109 7.36884L4.06562 6.25225ZM2.62109 11.6445V10.3555H5.19922V11.6445H2.62109ZM3.42109 14.6312L5.6543 13.3421L6.29883 14.4587L4.06562 15.7477L3.42109 14.6312ZM7.36884 18.5789L6.25225 17.9344L7.54132 15.7012L8.6579 16.3457L7.36884 18.5789ZM11.6445 19.3789H10.3555V16.8008H11.6445V19.3789ZM14.8672 15.5117C14.1756 15.5117 13.5274 15.3426 12.941 15.0632C12.3367 15.3518 11.6749 15.5117 11 15.5117C8.5125 15.5117 6.48828 13.4875 6.48828 11C6.48828 8.5125 8.5125 6.48828 11 6.48828C11.6749 6.48828 12.3368 6.64817 12.941 6.93683C13.5274 6.65745 14.1756 6.48828 14.8672 6.48828C17.3547 6.48828 19.3789 8.5125 19.3789 11C19.3789 13.4875 17.3547 15.5117 14.8672 15.5117Z" fill="#666666"/>
    <path d="M14.8672 14.2227C16.647 14.2227 18.0898 12.7798 18.0898 11C18.0898 9.22018 16.647 7.77734 14.8672 7.77734C13.0874 7.77734 11.6445 9.22018 11.6445 11C11.6445 12.7798 13.0874 14.2227 14.8672 14.2227Z" fill="#666666"/>
    <path d="M10.3555 11C10.3555 9.77947 10.8471 8.67419 11.6374 7.86113C11.4274 7.81864 11.2162 7.77734 11 7.77734C9.22311 7.77734 7.77734 9.22311 7.77734 11C7.77734 12.7769 9.22311 14.2227 11 14.2227C11.2162 14.2227 11.4274 14.1814 11.6374 14.1389C10.8471 13.3258 10.3555 12.2205 10.3555 11Z" fill="#666666"/>
  </g>
  <defs>
    <clipPath id="clip0_286_9">
      <rect width="22" height="22" fill="white"/>
    </clipPath>
  </defs>
</svg>