<svg xmlns="http://www.w3.org/2000/svg" width="14" height="14" viewBox="0 0 14 14" fill="none">
  <g clip-path="url(#clip0_286_30)">
    <path d="M12.8649 13.4324H1.13517C0.93447 13.4324 0.741986 13.3527 0.600067 13.2108C0.458147 13.0688 0.378418 12.8763 0.378418 12.6756V4.54051C0.378418 4.49033 0.39835 4.44221 0.43383 4.40673C0.46931 4.37125 0.517431 4.35132 0.567607 4.35132H13.4325C13.4826 4.35132 13.5308 4.37125 13.5662 4.40673C13.6017 4.44221 13.6217 4.49033 13.6217 4.54051V12.6756C13.6217 12.8763 13.5419 13.0688 13.4 13.2108C13.2581 13.3527 13.0656 13.4324 12.8649 13.4324ZM0.756796 4.7297V12.6756C0.756796 12.776 0.796661 12.8722 0.867621 12.9432C0.938581 13.0142 1.03482 13.054 1.13517 13.054H12.8649C12.9653 13.054 13.0615 13.0142 13.1325 12.9432C13.2034 12.8722 13.2433 12.776 13.2433 12.6756V4.7297H0.756796Z" fill="#0E131A"/>
    <path d="M13.4325 4.72966H0.567607C0.517431 4.72966 0.46931 4.70973 0.43383 4.67425C0.39835 4.63877 0.378418 4.59065 0.378418 4.54047V2.45939C0.378418 2.25869 0.458147 2.0662 0.600067 1.92429C0.741986 1.78237 0.93447 1.70264 1.13517 1.70264H2.83788C2.88805 1.70264 2.93617 1.72257 2.97165 1.75805C3.00713 1.79353 3.02707 1.84165 3.02707 1.89183C3.02707 1.942 3.00713 1.99012 2.97165 2.0256C2.93617 2.06108 2.88805 2.08102 2.83788 2.08102H1.13517C1.03482 2.08102 0.938581 2.12088 0.867621 2.19184C0.796661 2.2628 0.756796 2.35904 0.756796 2.45939V4.35129H13.2433V2.45939C13.2433 2.35904 13.2034 2.2628 13.1325 2.19184C13.0615 2.12088 12.9653 2.08102 12.8649 2.08102H11.1622C11.112 2.08102 11.0639 2.06108 11.0284 2.0256C10.9929 1.99012 10.973 1.942 10.973 1.89183C10.973 1.84165 10.9929 1.79353 11.0284 1.75805C11.0639 1.72257 11.112 1.70264 11.1622 1.70264H12.8649C13.0656 1.70264 13.2581 1.78237 13.4 1.92429C13.5419 2.0662 13.6217 2.25869 13.6217 2.45939V4.54047C13.6217 4.59065 13.6017 4.63877 13.5662 4.67425C13.5308 4.70973 13.4826 4.72966 13.4325 4.72966Z" fill="#0E131A"/>
    <path d="M9.83789 2.08102H4.16221C4.11204 2.08102 4.06391 2.06108 4.02843 2.0256C3.99295 1.99012 3.97302 1.942 3.97302 1.89183C3.97302 1.84165 3.99295 1.79353 4.02843 1.75805C4.06391 1.72257 4.11204 1.70264 4.16221 1.70264H9.83789C9.88806 1.70264 9.93618 1.72257 9.97166 1.75805C10.0071 1.79353 10.0271 1.84165 10.0271 1.89183C10.0271 1.942 10.0071 1.99012 9.97166 2.0256C9.93618 2.06108 9.88806 2.08102 9.83789 2.08102Z" fill="#0E131A"/>
    <path d="M10.973 3.21628H10.0271C9.92671 3.21628 9.83047 3.17641 9.75951 3.10545C9.68855 3.03449 9.64868 2.93825 9.64868 2.8379V0.946005C9.64868 0.845653 9.68855 0.749411 9.75951 0.678451C9.83047 0.607492 9.92671 0.567627 10.0271 0.567627H10.973C11.0734 0.567627 11.1696 0.607492 11.2406 0.678451C11.3115 0.749411 11.3514 0.845653 11.3514 0.946005V2.8379C11.3514 2.93825 11.3115 3.03449 11.2406 3.10545C11.1696 3.17641 11.0734 3.21628 10.973 3.21628ZM10.0271 0.946005V2.8379H10.973V0.946005H10.0271Z" fill="#0E131A"/>
    <path d="M3.97301 3.21628H3.02706C2.92671 3.21628 2.83047 3.17641 2.75951 3.10545C2.68855 3.03449 2.64868 2.93825 2.64868 2.8379V0.946005C2.64868 0.845653 2.68855 0.749411 2.75951 0.678451C2.83047 0.607492 2.92671 0.567627 3.02706 0.567627H3.97301C4.07336 0.567627 4.1696 0.607492 4.24056 0.678451C4.31152 0.749411 4.35138 0.845653 4.35138 0.946005V2.8379C4.35138 2.93825 4.31152 3.03449 4.24056 3.10545C4.1696 3.17641 4.07336 3.21628 3.97301 3.21628ZM3.97301 0.946005H3.02706V2.8379H3.97301V0.946005Z" fill="#0E131A"/>
    <path d="M11.4815 7.37826H10.5591C10.4807 7.37816 10.4056 7.34699 10.3502 7.29159C10.2948 7.2362 10.2636 7.16109 10.2635 7.08275V6.16026C10.2636 6.08192 10.2948 6.00681 10.3502 5.95141C10.4056 5.89601 10.4807 5.86485 10.5591 5.86475H11.4815C11.5599 5.86485 11.635 5.89601 11.6904 5.95141C11.7458 6.00681 11.777 6.08192 11.7771 6.16026V7.08275C11.777 7.16109 11.7458 7.2362 11.6904 7.29159C11.635 7.34699 11.5599 7.37816 11.4815 7.37826ZM10.6419 6.99988H11.3987V6.24312H10.6419V6.99988Z" fill="#0E131A"/>
    <path d="M8.80125 7.37826H7.87895C7.80058 7.37821 7.72542 7.34707 7.66998 7.29166C7.61454 7.23626 7.58335 7.16112 7.58325 7.08275V6.16026C7.58335 6.08188 7.61454 6.00675 7.66998 5.95134C7.72542 5.89594 7.80058 5.8648 7.87895 5.86475H8.80125C8.8796 5.86485 8.9547 5.89601 9.0101 5.95141C9.0655 6.00681 9.09667 6.08192 9.09677 6.16026V7.08275C9.09667 7.16109 9.0655 7.2362 9.0101 7.29159C8.9547 7.34699 8.8796 7.37816 8.80125 7.37826ZM7.96163 6.99988H8.71839V6.24312H7.96163V6.99988Z" fill="#0E131A"/>
    <path d="M6.12101 7.37826H5.19871C5.12037 7.37816 5.04526 7.34699 4.98986 7.29159C4.93446 7.2362 4.9033 7.16109 4.9032 7.08275V6.16026C4.9033 6.08192 4.93446 6.00681 4.98986 5.95141C5.04526 5.89601 5.12037 5.86485 5.19871 5.86475H6.12101C6.19939 5.8648 6.27454 5.89594 6.32998 5.95134C6.38542 6.00675 6.41661 6.08188 6.41671 6.16026V7.08275C6.41661 7.16112 6.38542 7.23626 6.32998 7.29166C6.27454 7.34707 6.19939 7.37821 6.12101 7.37826ZM5.28158 6.99988H6.03833V6.24312H5.28158V6.99988Z" fill="#0E131A"/>
    <path d="M11.4815 9.64877H10.5591C10.4807 9.64867 10.4056 9.6175 10.3502 9.5621C10.2948 9.5067 10.2636 9.4316 10.2635 9.35325V8.43077C10.2636 8.35242 10.2948 8.27732 10.3502 8.22192C10.4056 8.16652 10.4807 8.13535 10.5591 8.13525H11.4815C11.5599 8.13535 11.635 8.16652 11.6904 8.22192C11.7458 8.27732 11.777 8.35242 11.7771 8.43077V9.35325C11.777 9.4316 11.7458 9.5067 11.6904 9.5621C11.635 9.6175 11.5599 9.64867 11.4815 9.64877ZM10.6419 9.27039H11.3987V8.51363H10.6419V9.27039Z" fill="#0E131A"/>
    <path d="M8.80125 9.64877H7.87895C7.80058 9.64872 7.72542 9.61757 7.66998 9.56217C7.61454 9.50677 7.58335 9.43163 7.58325 9.35325V8.43077C7.58335 8.35239 7.61454 8.27725 7.66998 8.22185C7.72542 8.16645 7.80058 8.1353 7.87895 8.13525H8.80125C8.8796 8.13535 8.9547 8.16652 9.0101 8.22192C9.0655 8.27732 9.09667 8.35242 9.09677 8.43077V9.35325C9.09667 9.4316 9.0655 9.5067 9.0101 9.5621C8.9547 9.6175 8.8796 9.64867 8.80125 9.64877ZM7.96163 9.27039H8.71839V8.51363H7.96163V9.27039Z" fill="#0E131A"/>
    <path d="M6.12101 9.64877H5.19871C5.12037 9.64867 5.04526 9.6175 4.98986 9.5621C4.93446 9.5067 4.9033 9.4316 4.9032 9.35325V8.43077C4.9033 8.35242 4.93446 8.27732 4.98986 8.22192C5.04526 8.16652 5.12037 8.13535 5.19871 8.13525H6.12101C6.19939 8.1353 6.27454 8.16645 6.32998 8.22185C6.38542 8.27725 6.41661 8.35239 6.41671 8.43077V9.35325C6.41661 9.43163 6.38542 9.50677 6.32998 9.56217C6.27454 9.61757 6.19939 9.64872 6.12101 9.64877ZM5.28158 9.27039H6.03833V8.51363H5.28158V9.27039Z" fill="#0E131A"/>
    <path d="M3.44102 9.64877H2.51854C2.44019 9.64867 2.36508 9.6175 2.30969 9.5621C2.25429 9.5067 2.22312 9.4316 2.22302 9.35325V8.43077C2.22312 8.35242 2.25429 8.27732 2.30969 8.22192C2.36508 8.16652 2.44019 8.13535 2.51854 8.13525H3.44102C3.51937 8.13535 3.59447 8.16652 3.64987 8.22192C3.70527 8.27732 3.73644 8.35242 3.73654 8.43077V9.35325C3.73644 9.4316 3.70527 9.5067 3.64987 9.5621C3.59447 9.6175 3.51937 9.64867 3.44102 9.64877ZM2.6014 9.27039H3.35816V8.51363H2.6014V9.27039Z" fill="#0E131A"/>
    <path d="M8.80125 11.919H7.87895C7.80058 11.919 7.72542 11.8878 7.66998 11.8324C7.61454 11.777 7.58335 11.7019 7.58325 11.6235V10.701C7.58335 10.6227 7.61454 10.5475 7.66998 10.4921C7.72542 10.4367 7.80058 10.4056 7.87895 10.4055H8.80125C8.8796 10.4056 8.9547 10.4368 9.0101 10.4922C9.0655 10.5476 9.09667 10.6227 9.09677 10.701V11.6235C9.09667 11.7019 9.0655 11.777 9.0101 11.8324C8.9547 11.8878 8.8796 11.9189 8.80125 11.919ZM7.96163 11.5407H8.71839V10.7839H7.96163V11.5407Z" fill="#0E131A"/>
    <path d="M6.12101 11.919H5.19871C5.12037 11.9189 5.04526 11.8878 4.98986 11.8324C4.93446 11.777 4.9033 11.7019 4.9032 11.6235V10.701C4.9033 10.6227 4.93446 10.5476 4.98986 10.4922C5.04526 10.4368 5.12037 10.4056 5.19871 10.4055H6.12101C6.19939 10.4056 6.27454 10.4367 6.32998 10.4921C6.38542 10.5475 6.41661 10.6227 6.41671 10.701V11.6235C6.41661 11.7019 6.38542 11.777 6.32998 11.8324C6.27454 11.8878 6.19939 11.919 6.12101 11.919ZM5.28158 11.5407H6.03833V10.7839H5.28158V11.5407Z" fill="#0E131A"/>
    <path d="M3.44102 11.919H2.51854C2.44019 11.9189 2.36508 11.8878 2.30969 11.8324C2.25429 11.777 2.22312 11.7019 2.22302 11.6235V10.701C2.22312 10.6227 2.25429 10.5476 2.30969 10.4922C2.36508 10.4368 2.44019 10.4056 2.51854 10.4055H3.44102C3.51937 10.4056 3.59447 10.4368 3.64987 10.4922C3.70527 10.5476 3.73644 10.6227 3.73654 10.701V11.6235C3.73644 11.7019 3.70527 11.777 3.64987 11.8324C3.59447 11.8878 3.51937 11.9189 3.44102 11.919ZM2.6014 11.5407H3.35816V10.7839H2.6014V11.5407Z" fill="#0E131A"/>
  </g>
  <defs>
    <clipPath id="clip0_286_30">
      <rect width="14" height="14" fill="white"/>
    </clipPath>
  </defs>
</svg>