<svg xmlns="http://www.w3.org/2000/svg" width="20" height="20" viewBox="0 0 20 20" fill="none">
  <path d="M11.4297 5V5.59492H10.5752V10.2119H9.94862C9.79129 9.88229 9.59599 9.59461 9.36271 9.34881C9.12943 9.09744 8.87987 8.88237 8.61404 8.70362L8.81748 8.15059C9.02364 8.27348 9.23793 8.44107 9.46036 8.65334C9.68279 8.86561 9.85368 9.08068 9.97303 9.29854C9.96761 9.21475 9.96218 9.13654 9.95676 9.06392C9.95676 8.9913 9.95404 8.91589 9.94862 8.83768C9.94862 8.75948 9.94862 8.67568 9.94862 8.58631V5.59492H4V5H11.4297ZM7.14113 9.44937C6.77222 9.44937 6.41959 9.35999 6.08324 9.18123C5.74688 9.00247 5.42951 8.70082 5.13113 8.27628C4.83818 7.84614 4.56692 7.2568 4.31737 6.50826L4.91142 6.30716C5.10672 6.88812 5.31016 7.36573 5.52174 7.74C5.73874 8.10869 5.98016 8.37962 6.24599 8.55279C6.51182 8.72596 6.81562 8.81255 7.15741 8.81255C7.45579 8.81255 7.69449 8.76506 7.87352 8.6701C8.05797 8.56955 8.19089 8.43548 8.27226 8.2679C8.35364 8.09473 8.39433 7.9048 8.39433 7.69811C8.39433 7.37411 8.30753 7.11156 8.13392 6.91046C7.96574 6.70936 7.75417 6.60881 7.49919 6.60881C7.32016 6.60881 7.18453 6.65071 7.0923 6.7345C7.00008 6.8127 6.95396 6.93281 6.95396 7.09481C6.95396 7.13391 6.95939 7.18698 6.97024 7.25401C6.98109 7.32104 6.99737 7.38249 7.01907 7.43835L6.4006 7.56404C6.36263 7.44673 6.33279 7.3406 6.31109 7.24563C6.29482 7.14508 6.28668 7.05012 6.28668 6.96074C6.28668 6.75405 6.34093 6.58088 6.44943 6.44123C6.56336 6.30157 6.70712 6.19823 6.88073 6.13119C7.05975 6.05858 7.24692 6.02227 7.44222 6.02227C7.7623 6.02227 8.03898 6.09768 8.27226 6.2485C8.50554 6.39374 8.68728 6.59484 8.81748 6.85181C8.94769 7.10877 9.01279 7.40763 9.01279 7.74838C9.01279 8.05004 8.94497 8.33214 8.80935 8.59469C8.67372 8.85165 8.46757 9.05834 8.19089 9.21475C7.91421 9.37116 7.56429 9.44937 7.14113 9.44937ZM6.88073 6.31554C6.8536 6.13678 6.77222 5.98037 6.6366 5.8463C6.50639 5.70665 6.3138 5.60889 6.05882 5.55303L6.25413 5.17596L6.62032 5.27651C6.92955 5.39941 7.15198 5.53906 7.28761 5.69548C7.42324 5.85189 7.5019 6.0502 7.5236 6.2904L6.88073 6.31554Z" fill="#0E131A"/>
  <path d="M10.8007 15C10.7573 15 10.7194 14.9832 10.6868 14.9497C10.6543 14.9162 10.638 14.8771 10.638 14.8324C10.638 14.8045 10.6407 14.7738 10.6461 14.7402L12.6643 9.31889C12.686 9.26303 12.7158 9.21834 12.7538 9.18482C12.7918 9.1513 12.8487 9.13455 12.9247 9.13455H13.478C13.5486 9.13455 13.6028 9.1513 13.6408 9.18482C13.6842 9.21834 13.7167 9.26303 13.7384 9.31889L15.7484 14.7402C15.7593 14.7738 15.7647 14.8045 15.7647 14.8324C15.7647 14.8771 15.7484 14.9162 15.7159 14.9497C15.6833 14.9832 15.6454 15 15.602 15H15.1869C15.1218 15 15.073 14.9832 15.0405 14.9497C15.0133 14.9162 14.9943 14.8855 14.9835 14.8576L14.5359 13.6677H11.8668L11.4192 14.8576C11.4138 14.8855 11.3948 14.9162 11.3622 14.9497C11.3297 14.9832 11.2809 15 11.2158 15H10.8007ZM12.1028 12.9471H14.2999L13.2013 9.97247L12.1028 12.9471Z" fill="#0E131A"/>
</svg>