<svg xmlns="http://www.w3.org/2000/svg" width="24" height="25" viewBox="0 0 24 25" fill="none">
  <path d="M5.25 2.24902C4.38805 2.24902 3.5614 2.59143 2.9519 3.20093C2.34241 3.81042 2 4.63707 2 5.49902V14.499C2 15.14 2.186 15.739 2.506 16.242L8.207 10.872C8.62447 10.4787 9.17641 10.2596 9.75 10.2596C10.3236 10.2596 10.8755 10.4787 11.293 10.872L16.993 16.242C17.3249 15.7213 17.5009 15.1165 17.5 14.499V5.49902C17.5 5.07223 17.4159 4.64961 17.2526 4.2553C17.0893 3.86099 16.8499 3.50272 16.5481 3.20093C16.2463 2.89914 15.888 2.65974 15.4937 2.49641C15.0994 2.33309 14.6768 2.24902 14.25 2.24902H5.25ZM12.75 8.24902C12.4185 8.24902 12.1005 8.11733 11.8661 7.88291C11.6317 7.64849 11.5 7.33054 11.5 6.99902C11.5 6.6675 11.6317 6.34956 11.8661 6.11514C12.1005 5.88072 12.4185 5.74902 12.75 5.74902C13.0815 5.74902 13.3995 5.88072 13.6339 6.11514C13.8683 6.34956 14 6.6675 14 6.99902C14 7.33054 13.8683 7.64849 13.6339 7.88291C13.3995 8.11733 13.0815 8.24902 12.75 8.24902ZM5.25 17.749C4.64 17.749 4.07 17.581 3.582 17.289L9.236 11.964C9.37512 11.8331 9.55896 11.7602 9.75 11.7602C9.94104 11.7602 10.1249 11.8331 10.264 11.964L15.918 17.289C15.4141 17.591 14.8375 17.75 14.25 17.749H5.25ZM6.499 18.999V18.749H14.5C15.5609 18.749 16.5783 18.3276 17.3284 17.5774C18.0786 16.8273 18.5 15.8099 18.5 14.749V6.74902H18.749C19.611 6.74902 20.4376 7.09143 21.0471 7.70093C21.6566 8.31042 21.999 9.13707 21.999 9.99902V16.999C21.999 19.899 19.649 22.249 16.749 22.249H9.749C9.3222 22.249 8.89959 22.165 8.50528 22.0016C8.11097 21.8383 7.75269 21.5989 7.4509 21.2971C7.14911 20.9953 6.90972 20.6371 6.74639 20.2427C6.58306 19.8484 6.499 19.4258 6.499 18.999Z" fill="white"/>
</svg>