<svg xmlns="http://www.w3.org/2000/svg" width="16" height="17" viewBox="0 0 16 17" fill="none">
  <path fill-rule="evenodd" clip-rule="evenodd" d="M8.00057 3.34058C5.05657 3.34058 2.66724 5.72991 2.66724 8.67391C2.66724 11.6179 5.05657 14.0072 8.00057 14.0072C10.9446 14.0072 13.3339 11.6179 13.3339 8.67391C13.3339 5.72991 10.9446 3.34058 8.00057 3.34058ZM8.00031 12.9403C5.64298 12.9403 3.73364 11.031 3.73364 8.67365C3.73364 6.31632 5.64298 4.40698 8.00031 4.40698C10.3576 4.40698 12.267 6.31632 12.267 8.67365C12.267 11.031 10.3576 12.9403 8.00031 12.9403ZM8.00109 6.00776C6.52833 6.00776 5.33442 7.20167 5.33442 8.67443C5.33442 10.1472 6.52833 11.3411 8.00109 11.3411C9.47385 11.3411 10.6678 10.1472 10.6678 8.67443C10.6678 7.20167 9.47385 6.00776 8.00109 6.00776Z" fill="#F36523"/>
</svg>