<svg xmlns="http://www.w3.org/2000/svg" width="32" height="32" viewBox="0 0 32 32" fill="none">
  <path d="M22.9397 21.2693L27.9999 26.3282L26.3281 28L21.2692 22.9398C19.3868 24.4488 17.0455 25.2696 14.6329 25.2661C8.76349 25.2661 3.99988 20.5025 3.99988 14.6331C3.99988 8.76361 8.76349 4 14.6329 4C20.5024 4 25.266 8.76361 25.266 14.6331C25.2694 17.0456 24.4487 19.3869 22.9397 21.2693ZM20.5697 20.3926C22.0691 18.8507 22.9065 16.7838 22.9031 14.6331C22.9031 10.0632 19.2016 6.3629 14.6329 6.3629C10.0631 6.3629 6.36278 10.0632 6.36278 14.6331C6.36278 19.2017 10.0631 22.9032 14.6329 22.9032C16.7837 22.9066 18.8506 22.0693 20.3925 20.5699L20.5697 20.3926Z" fill="#666666"/>
</svg>