<svg xmlns="http://www.w3.org/2000/svg" width="24" height="24" viewBox="0 0 24 24" fill="none">
  <path d="M24 4.54688C23.1013 4.94513 22.1168 5.18152 21.1406 5.29688C22.1686 4.68146 22.9294 3.71832 23.2969 2.57812C22.3303 3.15161 21.3126 3.57953 20.2099 3.79688C19.257 2.78357 17.9767 2.25 16.6875 2.25C15.4219 2.25 14.2126 2.67682 13.2431 3.58868C12.2426 4.52948 11.6739 5.83099 11.6719 7.17188C11.6713 7.54504 11.7321 7.92114 11.8185 8.2934C7.85944 8.09491 4.18781 6.2168 1.6875 3.14062C1.23431 3.92084 0.983826 4.78253 0.984375 5.625C0.985474 7.21179 1.77411 8.75922 3.1875 9.70312C2.40381 9.67987 1.62231 9.5224 0.9375 9.14062V9.23035C0.938232 11.5743 2.62427 13.5046 4.92188 13.9688C4.51593 14.0795 3.9895 14.1579 3.56671 14.1579C3.56525 14.1579 3.56378 14.1579 3.5625 14.1579C3.23199 14.1573 2.90149 14.1248 2.57812 14.0625C3.22321 16.0684 5.20587 17.5386 7.3125 17.5781C5.56897 18.9485 2.85938 19.5938 1.17224 19.5938C0.780396 19.593 0.388916 19.5934 0 19.5469C2.24652 20.9885 4.8598 21.75 7.52875 21.75H7.54742V21.7538C16.5469 21.7538 21.5625 14.2484 21.5625 7.74133C21.5625 7.5282 21.5301 7.28925 21.5156 7.07812C22.4793 6.38104 23.3388 5.53564 24 4.54688ZM18.8839 12.0139C18.3316 13.4777 17.538 14.8004 16.5253 15.9456C15.4514 17.1597 14.1793 18.113 12.7449 18.7786C11.2689 19.4634 9.63885 19.8314 7.89514 19.8745L7.54413 19.875H7.52875C7.42731 19.875 7.32605 19.8737 7.22498 19.8712C7.66608 19.6276 8.08594 19.355 8.47101 19.0523C9.4389 18.1533 9.87085 17.0143 10.0312 15.7538C10.0312 15.7538 9.24225 15.8498 8.34375 15.8438C7.64758 15.839 6.88586 15.7819 6.3739 15.5162C7.64795 14.9434 8.31757 13.9938 8.59003 12.7969C7.5 12.8906 4.96875 12.3281 4.06073 11.6049C5.0625 11.25 6 10.5 6.375 9.89062C6.375 9.89062 4.59375 9.04688 3.33636 7.23798C5.77863 8.98059 8.68707 10.0139 11.7248 10.166L14.2031 10.2656L13.6904 8.06543L13.5947 7.62909C13.5624 7.45221 13.5467 7.30225 13.5469 7.17462C13.548 6.34882 13.9056 5.53949 14.5276 4.95447C15.1128 4.40405 15.8395 4.125 16.6875 4.125C17.3139 4.125 17.9324 4.33923 18.4459 4.72485C19.2656 5.4375 19.6875 6.375 19.6875 7.74133C19.6875 9.14337 19.4095 10.6208 18.8839 12.0139Z" fill="#666666"/>
</svg>