<svg xmlns="http://www.w3.org/2000/svg" width="24" height="24" viewBox="0 0 24 24" fill="none">
  <g clip-path="url(#clip0_316_177)">
    <path d="M11.9992 20.7184C11.9971 20.7184 11.9949 20.7184 11.9927 20.7184C11.2686 20.7135 4.86645 20.6551 3.0526 20.1645C1.78496 19.8238 0.784288 18.8242 0.442612 17.5564C-0.0319979 15.7746 -0.00178541 12.3441 0.0015105 12.0701C-0.0016023 11.7975 -0.032181 8.33863 0.441147 6.54218C0.441697 6.54053 0.442063 6.5387 0.442612 6.53705C0.780442 5.28369 1.80364 4.25318 3.04949 3.9115C3.0526 3.91058 3.0559 3.90985 3.05901 3.90894C4.85235 3.43762 11.2671 3.37994 11.9927 3.375H12.0057C12.7318 3.37994 19.1509 3.43835 20.9481 3.92963C22.2124 4.26947 23.2124 5.26776 23.555 6.53394C24.0473 8.33167 24.0017 11.798 23.9968 12.0907C24.0003 12.3789 24.029 15.7786 23.5572 17.5694C23.5568 17.5712 23.5562 17.5728 23.5559 17.5745C23.214 18.8423 22.2135 19.8419 20.9444 20.183C20.9428 20.1836 20.9409 20.1839 20.9393 20.1845C19.1461 20.6556 12.7312 20.7133 12.0057 20.7184C12.0035 20.7184 12.0013 20.7184 11.9992 20.7184ZM2.25353 7.02302C1.83678 8.60871 1.87615 12.0235 1.87651 12.0579V12.0826C1.86406 13.0296 1.90782 15.7722 2.25371 17.0711C2.42144 17.6931 2.91491 18.1859 3.54076 18.3542C4.87908 18.7162 10.0934 18.83 11.9992 18.8434C13.9099 18.83 19.1319 18.7193 20.4603 18.3717C21.0841 18.2029 21.5759 17.7118 21.7448 17.0891C22.091 15.7711 22.1344 13.0419 22.1218 12.1009C22.1218 12.091 22.1218 12.0811 22.122 12.0712C22.1392 11.1129 22.1053 8.33826 21.7464 7.02888C21.7461 7.02759 21.7457 7.02631 21.7455 7.02503C21.577 6.40027 21.0834 5.90754 20.4575 5.73926C19.1322 5.3769 13.9095 5.26337 11.9992 5.25C10.0897 5.26337 4.87286 5.37397 3.5404 5.72113C2.92644 5.89142 2.4218 6.40174 2.25353 7.02302ZM22.6506 17.3306H22.6511H22.6506ZM9.60944 15.8434V8.24983L16.1719 12.0467L9.60944 15.8434Z" fill="#666666"/>
  </g>
  <defs>
    <clipPath id="clip0_316_177">
      <rect width="24" height="24" fill="white"/>
    </clipPath>
  </defs>
</svg>